<svg xmlns="http://www.w3.org/2000/svg" xmlns:xlink="http://www.w3.org/1999/xlink" width="40" zoomAndPan="magnify" viewBox="0 0 30 30.000001" height="40" preserveAspectRatio="xMidYMid meet" version="1.0"><path fill="#fef8f4" d="M 18.078125 7.953125 L 15 4.878906 L 11.921875 7.953125 L 11.109375 7.140625 L 15 3.25 L 18.890625 7.140625 Z M 18.078125 7.953125 " fill-opacity="1" fill-rule="nonzero"/><path fill="#fef8f4" d="M 14.417969 4.066406 L 15.582031 4.066406 L 15.582031 16.257812 L 14.417969 16.257812 Z M 14.417969 4.066406 " fill-opacity="1" fill-rule="nonzero"/><path fill="#fef8f4" d="M 20.804688 23.226562 L 9.195312 23.226562 C 8.207031 23.226562 7.453125 22.472656 7.453125 21.484375 L 7.453125 11.03125 C 7.453125 10.046875 8.207031 9.289062 9.195312 9.289062 L 13.257812 9.289062 L 13.257812 10.453125 L 9.195312 10.453125 C 8.84375 10.453125 8.613281 10.683594 8.613281 11.03125 L 8.613281 21.484375 C 8.613281 21.832031 8.84375 22.066406 9.195312 22.066406 L 20.804688 22.066406 C 21.15625 22.066406 21.386719 21.832031 21.386719 21.484375 L 21.386719 11.03125 C 21.386719 10.683594 21.15625 10.453125 20.804688 10.453125 L 16.742188 10.453125 L 16.742188 9.289062 L 20.804688 9.289062 C 21.792969 9.289062 22.546875 10.046875 22.546875 11.03125 L 22.546875 21.484375 C 22.546875 22.472656 21.792969 23.226562 20.804688 23.226562 Z M 20.804688 23.226562 " fill-opacity="1" fill-rule="nonzero"/></svg>